<svg xmlns="http://www.w3.org/2000/svg" width="73.063" height="12.889" viewBox="0 0 73.063 12.889">
  <g id="_5stars" data-name="5stars" transform="translate(-1247.937 -198.486)">
    <path id="star-solid" d="M31.513.453a.806.806,0,0,0-1.45,0l-1.619,3.33-3.615.534a.806.806,0,0,0-.448,1.369L27,8.281l-.619,3.667a.808.808,0,0,0,1.176.846L30.79,11.07l3.229,1.724a.808.808,0,0,0,1.175-.846l-.622-3.667,2.623-2.6a.806.806,0,0,0-.448-1.369l-3.617-.534Z" transform="translate(1223.794 198.486)" fill="#f4ce14"/>
    <path id="star-solid-2" data-name="star-solid" d="M31.513.453a.806.806,0,0,0-1.45,0l-1.619,3.33-3.615.534a.806.806,0,0,0-.448,1.369L27,8.281l-.619,3.667a.808.808,0,0,0,1.176.846L30.79,11.07l3.229,1.724a.808.808,0,0,0,1.175-.846l-.622-3.667,2.623-2.6a.806.806,0,0,0-.448-1.369l-3.617-.534Z" transform="translate(1238.565 198.486)" fill="#f4ce14"/>
    <path id="star-solid-3" data-name="star-solid" d="M31.513.453a.806.806,0,0,0-1.45,0l-1.619,3.33-3.615.534a.806.806,0,0,0-.448,1.369L27,8.281l-.619,3.667a.808.808,0,0,0,1.176.846L30.79,11.07l3.229,1.724a.808.808,0,0,0,1.175-.846l-.622-3.667,2.623-2.6a.806.806,0,0,0-.448-1.369l-3.617-.534Z" transform="translate(1253.565 198.486)" fill="#f4ce14"/>
    <path id="star-solid-4" data-name="star-solid" d="M31.513.453a.806.806,0,0,0-1.45,0l-1.619,3.33-3.615.534a.806.806,0,0,0-.448,1.369L27,8.281l-.619,3.667a.808.808,0,0,0,1.176.846L30.79,11.07l3.229,1.724a.808.808,0,0,0,1.175-.846l-.622-3.667,2.623-2.6a.806.806,0,0,0-.448-1.369l-3.617-.534Z" transform="translate(1268.565 198.486)" fill="#f4ce14"/>
    <path id="star-solid-5" data-name="star-solid" d="M31.513.453a.806.806,0,0,0-1.45,0l-1.619,3.33-3.615.534a.806.806,0,0,0-.448,1.369L27,8.281l-.619,3.667a.808.808,0,0,0,1.176.846L30.79,11.07l3.229,1.724a.808.808,0,0,0,1.175-.846l-.622-3.667,2.623-2.6a.806.806,0,0,0-.448-1.369l-3.617-.534Z" transform="translate(1283.565 198.486)" fill="#f4ce14"/>
  </g>
</svg>
