<svg xmlns="http://www.w3.org/2000/svg" width="33" height="23.1" viewBox="0 0 33 23.1">
  <path id="cloud-arrow-up-solid" d="M7.425,55.1A7.427,7.427,0,0,1,4.96,40.668c-.005-.139-.01-.278-.01-.418a8.251,8.251,0,0,1,15.4-4.115,4.947,4.947,0,0,1,7.7,4.115,5.005,5.005,0,0,1-.33,1.784A6.6,6.6,0,0,1,26.4,55.1ZM11.5,43.911a1.236,1.236,0,0,0,1.748,1.748l2.011-2.011v6.915a1.237,1.237,0,1,0,2.475,0V43.648l2.011,2.011a1.236,1.236,0,0,0,1.748-1.748l-4.125-4.125a1.232,1.232,0,0,0-1.748,0l-4.125,4.125Z" transform="translate(0 -32)" fill="#495e57"/>
</svg>
